Run_50002
nRows=4
nColumns=164

# SIMM Motion File Header:
name Run_50002
datacolumns 164
datarows 4
otherdata 1
range 1.92500000 1.95000000
endheader
time	pelvis_tilt	pelvis_list	pelvis_rotation	pelvis_tx	pelvis_ty	pelvis_tz	hip_flexion_r	hip_adduction_r	hip_rotation_r	knee_angle_r	ankle_angle_r	hip_flexion_l	hip_adduction_l	hip_rotation_l	knee_angle_l	ankle_angle_l	lumbar_extension	lumbar_bending	lumbar_rotation	arm_flex_r	arm_add_r	arm_rot_r	elbow_flex_r	pro_sup_r	arm_flex_l	arm_add_l	arm_rot_l	elbow_flex_l	pro_sup_l	subtalar_angle_r	mtp_angle_r	subtalar_angle_l	mtp_angle_l	wrist_flex_r	wrist_dev_r	wrist_flex_l	wrist_dev_l	LASI_tx	LASI_ty	LASI_tz	RASI_tx	RASI_ty	RASI_tz	LPSI_tx	LPSI_ty	LPSI_tz	RPSI_tx	RPSI_ty	RPSI_tz	RTH1_tx	RTH1_ty	RTH1_tz	RTH2_tx	RTH2_ty	RTH2_tz	RTH3_tx	RTH3_ty	RTH3_tz	LTH1_tx	LTH1_ty	LTH1_tz	LTH2_tx	LTH2_ty	LTH2_tz	LTH3_tx	LTH3_ty	LTH3_tz	RTB1_tx	RTB1_ty	RTB1_tz	RTB2_tx	RTB2_ty	RTB2_tz	RTB3_tx	RTB3_ty	RTB3_tz	LTB1_tx	LTB1_ty	LTB1_tz	LTB2_tx	LTB2_ty	LTB2_tz	LTB3_tx	LTB3_ty	LTB3_tz	RCAL_tx	RCAL_ty	RCAL_tz	RTOE_tx	RTOE_ty	RTOE_tz	RMT5_tx	RMT5_ty	RMT5_tz	LCAL_tx	LCAL_ty	LCAL_tz	LTOE_tx	LTOE_ty	LTOE_tz	LMT5_tx	LMT5_ty	LMT5_tz	LACR_tx	LACR_ty	LACR_tz	RACR_tx	RACR_ty	RACR_tz	CLAV_tx	CLAV_ty	CLAV_tz	C7_tx	C7_ty	C7_tz	RUA1_tx	RUA1_ty	RUA1_tz	RUA2_tx	RUA2_ty	RUA2_tz	RUA3_tx	RUA3_ty	RUA3_tz	RLEL_tx	RLEL_ty	RLEL_tz	RMEL_tx	RMEL_ty	RMEL_tz	LUA1_tx	LUA1_ty	LUA1_tz	LUA2_tx	LUA2_ty	LUA2_tz	LUA3_tx	LUA3_ty	LUA3_tz	LLEL_tx	LLEL_ty	LLEL_tz	LMEL_tx	LMEL_ty	LMEL_tz	RFAsuperior_tx	RFAsuperior_ty	RFAsuperior_tz	RFAradius_tx	RFAradius_ty	RFAradius_tz	RFAulna_tx	RFAulna_ty	RFAulna_tz	LFAsuperior_tx	LFAsuperior_ty	LFAsuperior_tz	LFAradius_tx	LFAradius_ty	LFAradius_tz	LFAulna_tx	LFAulna_ty	LFAulna_tz
      1.92500000	     -1.28248800	     11.84840049	      4.67302867	      0.91947272	      1.00552596	     -0.63192044	     26.08767054	     -9.40727537	     -0.14928172	   -132.99294154	      2.85251003	     22.57671744	     18.48501563	     -4.66486167	    -49.21137779	     26.75281946	    -22.40842195	    -15.86565263	    -14.72922980	    -22.20403597	    -21.26378056	      2.55962744	     94.97969430	    116.35492769	     -3.32212513	    -34.89039219	      8.76614085	    113.39873282	    100.79747691	      0.00000000	      0.00000000	      0.00000000	      0.00000000	      0.00000000	      0.00000000	      0.00000000	      0.00000000	      0.90554014	      1.03205157	     -0.75990892	      0.92456556	      1.00632057	     -0.49706013	      0.73229914	      1.06064288	     -0.64976779	      0.73840894	      1.04532980	     -0.57040700	      0.88934055	      0.83011292	     -0.46139445	      0.97659997	      0.74351072	     -0.47167180	      0.93700189	      0.62171939	     -0.49527316	      0.87224296	      0.82639933	     -0.80862265	      0.96494578	      0.72259476	     -0.79462174	      0.93034937	      0.59882578	     -0.75979545	      0.89013449	      0.48258360	     -0.58255641	      0.83447282	      0.51847045	     -0.51197443	      0.77903050	      0.43460011	     -0.58324114	      0.97889317	      0.37422428	     -0.67611547	      0.91652743	      0.29835981	     -0.71877181	      0.88111561	      0.19997005	     -0.64047843	      0.61545892	      0.68989616	     -0.59231897	      0.52804492	      0.47310151	     -0.58498366	      0.52948281	      0.54942123	     -0.50048547	      0.71568077	      0.10638249	     -0.61580087	      0.94892702	      0.07085498	     -0.60175496	      0.87221316	      0.05209469	     -0.69291286	      0.95708029	      1.45198286	     -0.82914232	      0.95887635	      1.49766523	     -0.48343212	      1.00213275	      1.42077137	     -0.61589231	      0.87837107	      1.52009188	     -0.65539390	      0.91016545	      1.40706330	     -0.39825774	      0.87330778	      1.32440413	     -0.39613558	      0.80572446	      1.35323240	     -0.36483535	      0.73218274	      1.24411102	     -0.30882271	      0.69915054	      1.23695827	     -0.38593324	      0.94564268	      1.35932495	     -0.90303408	      0.96127776	      1.28685551	     -0.89705638	      0.86954329	      1.27887682	     -0.91905831	      0.88662912	      1.12626015	     -0.99528905	      0.82209348	      1.10596393	     -0.93797894	      0.82053108	      1.17497293	     -0.31474371	      0.93367339	      1.06960468	     -0.40532317	      0.91090444	      1.04276982	     -0.34185111	      0.97420294	      1.12082305	     -0.94395523	      1.07750003	      1.12233251	     -0.80191004	      1.09284634	      1.06063331	     -0.83722260
      1.93333300	     -1.60309590	     11.45255682	      5.06716752	      0.91748681	      1.00517926	     -0.63314864	     30.49533159	     -8.95810520	      0.61860248	   -132.40365610	      3.45613371	     20.14966560	     18.20222947	     -3.80897783	    -48.82177829	     28.27388608	    -22.25300416	    -14.94790390	    -16.63217959	    -23.46363572	    -21.81354877	      3.23364386	     94.74255287	    113.59712363	     -2.43469924	    -34.42900472	      7.68770912	    114.65289119	    100.65084936	      0.00000000	      0.00000000	      0.00000000	      0.00000000	      0.00000000	      0.00000000	      0.00000000	      0.00000000	      0.90224418	      1.03073584	     -0.76080912	      0.92263159	      1.00594114	     -0.49824651	      0.73001987	      1.06170323	     -0.64985389	      0.73710362	      1.04568913	     -0.57076120	      0.89383615	      0.83191704	     -0.46194809	      0.98953652	      0.75305597	     -0.47264022	      0.95865788	      0.62922272	     -0.49424747	      0.86402845	      0.82540227	     -0.80990939	      0.95024047	      0.71487209	     -0.79671354	      0.91123267	      0.59349325	     -0.76102921	      0.91973177	      0.48634426	     -0.58331024	      0.86293385	      0.51635260	     -0.51205787	      0.80730972	      0.43261433	     -0.58327367	      0.95091340	      0.36796809	     -0.67669391	      0.88659005	      0.29393438	     -0.71933318	      0.84676460	      0.19809708	     -0.64076318	      0.62901890	      0.67057539	     -0.58721250	      0.56161922	      0.44656078	     -0.58566094	      0.55599593	      0.52058251	     -0.49921114	      0.67812858	      0.10829083	     -0.61578154	      0.91063704	      0.07044986	     -0.60208482	      0.83364538	      0.05216806	     -0.69295540	      0.96287970	      1.45267555	     -0.82805233	      0.95529496	      1.49710402	     -0.48224831	      1.00059495	      1.41900929	     -0.61359580	      0.87756898	      1.51959472	     -0.65627552	      0.90234426	      1.40804019	     -0.39780266	      0.86348472	      1.32729908	     -0.39477221	      0.79510192	      1.35824105	     -0.36751527	      0.71814067	      1.25156212	     -0.31140400	      0.68667691	      1.24435946	     -0.38898251	      0.95399175	      1.35814960	     -0.89980502	      0.96968191	      1.28684524	     -0.89352732	      0.87741611	      1.27611326	     -0.91609986	      0.89999816	      1.12397402	     -0.99144241	      0.83571585	      1.10235872	     -0.93471078	      0.80373042	      1.17928640	     -0.31498977	      0.91667602	      1.07158031	     -0.40167059	      0.88951821	      1.04335731	     -0.34078652	      0.98679880	      1.12179768	     -0.93949308	      1.08842894	      1.13019429	     -0.79516387	      1.10665974	      1.06833174	     -0.82864124
      1.94166700	     -2.09667127	     10.85378066	      5.49509853	      0.91586356	      1.00550267	     -0.63445518	     34.89440986	     -8.36400104	      1.10981788	   -131.06730963	      3.94296785	     17.77031454	     17.59498211	     -3.01272518	    -48.13131638	     29.27192922	    -21.68205394	    -13.81503987	    -18.46586313	    -24.99106673	    -22.55151858	      3.98780603	     95.22796660	    111.34144682	     -2.03917953	    -33.85278949	      6.41928489	    116.29858047	    100.52138554	      0.00000000	      0.00000000	      0.00000000	      0.00000000	      0.00000000	      0.00000000	      0.00000000	      0.00000000	      0.89950804	      1.02989914	     -0.76189539	      0.92136810	      1.00652966	     -0.49947517	      0.72846625	      1.06324362	     -0.65011408	      0.73622978	      1.04713673	     -0.57115135	      0.89825801	      0.83552000	     -0.46239541	      1.00057626	      0.76408920	     -0.47330500	      0.97814441	      0.63907333	     -0.49393475	      0.85467296	      0.82440294	     -0.81061906	      0.93391377	      0.70885153	     -0.79850873	      0.89158657	      0.58963268	     -0.76281149	      0.94884686	      0.49148294	     -0.58411529	      0.89050110	      0.51533922	     -0.51227106	      0.83463804	      0.43176132	     -0.58343199	      0.92246498	      0.36331713	     -0.67814711	      0.85586006	      0.29135809	     -0.72045759	      0.81267183	      0.19727085	     -0.64182574	      0.64191148	      0.64781374	     -0.58293288	      0.59702541	      0.41826168	     -0.58721674	      0.58371520	      0.48918878	     -0.49894178	      0.64078070	      0.11087523	     -0.61581828	      0.87247405	      0.07010484	     -0.60255124	      0.79510847	      0.05226523	     -0.69294604	      0.96855625	      1.45529453	     -0.82600450	      0.95120755	      1.49805250	     -0.48075431	      0.99913318	      1.41904336	     -0.61100166	      0.87714110	      1.52058790	     -0.65697895	      0.89338284	      1.41136252	     -0.39695636	      0.85268783	      1.33211526	     -0.39333551	      0.78376265	      1.36523434	     -0.36989390	      0.70370921	      1.26081047	     -0.31421834	      0.67382131	      1.25411669	     -0.39229642	      0.96255469	      1.35939903	     -0.89646276	      0.97727050	      1.28906352	     -0.88969911	      0.88458332	      1.27549154	     -0.91442094	      0.91146746	      1.12366284	     -0.98701469	      0.84791871	      1.10127668	     -0.92983324	      0.78594288	      1.18536552	     -0.31573430	      0.89981731	      1.07755993	     -0.40042348	      0.86917176	      1.04788286	     -0.34195740	      0.99708397	      1.12454773	     -0.93510987	      1.09698086	      1.14128624	     -0.78822523	      1.11821589	      1.07934993	     -0.81958327
      1.95000000	     -2.69389780	     10.01213120	      5.94044658	      0.91470381	      1.00659542	     -0.63571127	     39.11817485	     -7.60568931	      1.26187236	   -128.99376520	      4.40787766	     15.33350999	     16.61928433	     -2.23482176	    -47.10247032	     29.71611554	    -20.77262765	    -12.44712309	    -20.17092227	    -26.75881305	    -23.37857947	      4.58578467	     96.23945416	    110.31388388	     -1.93796645	    -33.18010363	      5.18322900	    118.15509904	    100.46975192	      0.00000000	      0.00000000	      0.00000000	      0.00000000	      0.00000000	      0.00000000	      0.00000000	      0.00000000	      0.89757332	      1.02968003	     -0.76321179	      0.92091875	      1.00836348	     -0.50074281	      0.72772156	      1.06521527	     -0.65040878	      0.73523203	      1.04979162	     -0.57119383	      0.90265074	      0.84086502	     -0.46264072	      1.00993681	      0.77610221	     -0.47364035	      0.99539545	      0.65059967	     -0.49409182	      0.84398201	      0.82335858	     -0.81068256	      0.91685691	      0.70443553	     -0.79984259	      0.87110698	      0.58716359	     -0.76477231	      0.97735886	      0.49748214	     -0.58498264	      0.91692971	      0.51516853	     -0.51264289	      0.86084192	      0.43173584	     -0.58374753	      0.89327995	      0.35974438	     -0.68051354	      0.82387611	      0.29015303	     -0.72188794	      0.77827777	      0.19719495	     -0.64344621	      0.65513480	      0.62181197	     -0.57973905	      0.63495854	      0.38882581	     -0.58935764	      0.61368693	      0.45593766	     -0.49954742	      0.60323781	      0.11454970	     -0.61603756	      0.83392427	      0.06964665	     -0.60307765	      0.75610909	      0.05244235	     -0.69307938	      0.97359952	      1.45947415	     -0.82293651	      0.94652209	      1.50044471	     -0.47920110	      0.99775161	      1.42129200	     -0.60820143	      0.87689721	      1.52296746	     -0.65739636	      0.88372304	      1.41709544	     -0.39605451	      0.84145077	      1.33867881	     -0.39238570	      0.77236658	      1.37394345	     -0.37200343	      0.68899852	      1.27147196	     -0.31770886	      0.66086708	      1.26587928	     -0.39640032	      0.97059383	      1.36289753	     -0.89295545	      0.98407711	      1.29308286	     -0.88567704	      0.89139993	      1.27734340	     -0.91359342	      0.92155637	      1.12504938	     -0.98206013	      0.85868948	      1.10229429	     -0.92400616	      0.76803378	      1.19342472	     -0.31735147	      0.88332141	      1.08623829	     -0.40115895	      0.85033549	      1.05583497	     -0.34424914	      1.00616074	      1.12943988	     -0.92985635	      1.10339023	      1.15471600	     -0.78115657	      1.12760517	      1.09292237	     -0.81043204
